<mxfile host="Electron" agent="Mozilla/5.0 (X11; Linux x86_64) AppleWebKit/537.36 (KHTML, like Gecko) draw.io/26.1.1 Chrome/132.0.6834.210 Electron/34.3.2 Safari/537.36" version="26.1.1">
  <diagram name="Seite-1" id="VvbHAciQ37YsIa0ir94W">
    <mxGraphModel dx="818" dy="491" grid="1" gridSize="10" guides="1" tooltips="1" connect="1" arrows="1" fold="1" page="1" pageScale="1" pageWidth="827" pageHeight="1169" math="0" shadow="0">
      <root>
        <mxCell id="0" />
        <mxCell id="1" parent="0" />
        <mxCell id="ii-3kI2Hp4j6IC2AhBA9-18" value="Bedingung" style="rhombus;whiteSpace=wrap;html=1;fontColor=#000000;fillColor=#ffffc0;strokeColor=#ff0000;" vertex="1" parent="1">
          <mxGeometry x="180" y="710" width="80" height="40" as="geometry" />
        </mxCell>
        <mxCell id="ii-3kI2Hp4j6IC2AhBA9-19" value="no" style="edgeStyle=orthogonalEdgeStyle;html=1;align=left;verticalAlign=bottom;endArrow=open;endSize=8;strokeColor=#ff0000;rounded=0;" edge="1" source="ii-3kI2Hp4j6IC2AhBA9-18" parent="1">
          <mxGeometry x="-1" relative="1" as="geometry">
            <mxPoint x="220" y="860" as="targetPoint" />
            <Array as="points">
              <mxPoint x="310" y="730" />
              <mxPoint x="310" y="860" />
            </Array>
          </mxGeometry>
        </mxCell>
        <mxCell id="ii-3kI2Hp4j6IC2AhBA9-20" value="yes" style="edgeStyle=orthogonalEdgeStyle;html=1;align=left;verticalAlign=top;endArrow=open;endSize=8;strokeColor=#ff0000;rounded=0;entryX=0.5;entryY=0;entryDx=0;entryDy=0;" edge="1" source="ii-3kI2Hp4j6IC2AhBA9-18" parent="1" target="ii-3kI2Hp4j6IC2AhBA9-22">
          <mxGeometry x="-1" relative="1" as="geometry">
            <mxPoint x="220" y="810" as="targetPoint" />
          </mxGeometry>
        </mxCell>
        <mxCell id="ii-3kI2Hp4j6IC2AhBA9-21" value="" style="html=1;align=left;verticalAlign=top;endArrow=open;endSize=8;strokeColor=#ff0000;rounded=0;entryX=0.5;entryY=0;entryDx=0;entryDy=0;" edge="1" parent="1" target="ii-3kI2Hp4j6IC2AhBA9-18">
          <mxGeometry x="-1" y="-90" relative="1" as="geometry">
            <mxPoint x="230" y="780" as="targetPoint" />
            <mxPoint x="220" y="670" as="sourcePoint" />
            <mxPoint as="offset" />
          </mxGeometry>
        </mxCell>
        <mxCell id="ii-3kI2Hp4j6IC2AhBA9-22" value="Anweisung" style="rounded=1;whiteSpace=wrap;html=1;arcSize=40;fontColor=#000000;fillColor=#ffffc0;strokeColor=#ff0000;" vertex="1" parent="1">
          <mxGeometry x="160" y="800" width="120" height="40" as="geometry" />
        </mxCell>
        <mxCell id="ii-3kI2Hp4j6IC2AhBA9-23" value="" style="edgeStyle=orthogonalEdgeStyle;html=1;verticalAlign=bottom;endArrow=open;endSize=8;strokeColor=#ff0000;rounded=0;" edge="1" source="ii-3kI2Hp4j6IC2AhBA9-22" parent="1">
          <mxGeometry relative="1" as="geometry">
            <mxPoint x="220" y="880" as="targetPoint" />
          </mxGeometry>
        </mxCell>
      </root>
    </mxGraphModel>
  </diagram>
</mxfile>
